<svg version="1.2" xmlns="http://www.w3.org/2000/svg" viewBox="0 0 512 512" width="512" height="512">
	<title>burger-svg</title>
	<style>
		.s0 { fill: #ffe207 } 
	</style>
	<path id="Layer" fill-rule="evenodd" class="s0" d="m61.1 224c-16.1 0-29.1-13-29.1-29.1 0-1.9 0.2-3.7 0.6-5.6 5.3-21 46.2-157.3 223.4-157.3 177.2 0 218.1 136.3 223.4 157.3 0.5 1.9 0.6 3.7 0.6 5.6 0 16.1-13 29.1-29.1 29.1zm82.9-96c0-4.2-1.7-8.3-4.7-11.3-3-3-7.1-4.7-11.3-4.7-4.2 0-8.3 1.7-11.3 4.7-3 3-4.7 7.1-4.7 11.3 0 4.2 1.7 8.3 4.7 11.3 3 3 7.1 4.7 11.3 4.7 4.2 0 8.3-1.7 11.3-4.7 3-3 4.7-7.1 4.7-11.3zm240 16c4.2 0 8.3-1.7 11.3-4.7 3-3 4.7-7.1 4.7-11.3 0-4.2-1.7-8.3-4.7-11.3-3-3-7.1-4.7-11.3-4.7-4.2 0-8.3 1.7-11.3 4.7-3 3-4.7 7.1-4.7 11.3 0 4.2 1.7 8.3 4.7 11.3 3 3 7.1 4.7 11.3 4.7zm-112-48c0-4.2-1.7-8.3-4.7-11.3-3-3-7.1-4.7-11.3-4.7-4.2 0-8.3 1.7-11.3 4.7-3 3-4.7 7.1-4.7 11.3 0 4.2 1.7 8.3 4.7 11.3 3 3 7.1 4.7 11.3 4.7 4.2 0 8.3-1.7 11.3-4.7 3-3 4.7-7.1 4.7-11.3zm-256 208c0-26.5 21.5-48 48-48h384c26.5 0 48 21.5 48 48 0 26.5-21.5 48-48 48h-384c-26.5 0-48-21.5-48-48zm16 96c0-8.8 7.2-16 16-16h416c8.8 0 16 7.2 16 16v16c0 35.3-28.7 64-64 64h-320c-35.3 0-64-28.7-64-64z"/>
</svg>