<svg version="1.2" xmlns="http://www.w3.org/2000/svg" viewBox="0 0 64 64" width="64" height="64">
	<title>close-svg</title>
	<style>
		.s0 { fill: #ffe207 } 
	</style>
	<path id="Layer" class="s0" d="m4.6 59.4q0.3 0.3 0.6 0.4 0.4 0.2 0.8 0.2 0.4 0 0.8-0.2 0.3-0.1 0.6-0.4l24.6-24.6 24.6 24.6c0.4 0.4 0.9 0.6 1.4 0.6 0.5 0 1-0.2 1.4-0.6 0.4-0.4 0.6-0.9 0.6-1.4 0-0.5-0.2-1-0.6-1.4l-24.6-24.6 24.6-24.6c0.4-0.4 0.6-0.9 0.6-1.4 0-0.5-0.2-1-0.6-1.4-0.4-0.4-0.9-0.6-1.4-0.6-0.5 0-1 0.2-1.4 0.6l-24.6 24.6-24.6-24.6c-0.4-0.3-0.9-0.5-1.4-0.5-0.5 0-0.9 0.2-1.3 0.6-0.4 0.4-0.6 0.8-0.6 1.3 0 0.5 0.2 1 0.5 1.4l24.6 24.6-24.6 24.6q-0.3 0.3-0.4 0.6-0.2 0.4-0.2 0.8 0 0.4 0.2 0.8 0.1 0.3 0.4 0.6z"/>
</svg>